<svg width="528" height="110" viewBox="0 0 528 110" fill="none" xmlns="http://www.w3.org/2000/svg">
<circle cx="40.8194" cy="55" r="40.8194" fill="#E5EAFF"/>
<circle cx="74.8355" cy="55" r="40.8194" fill="#B7C4FC"/>
<circle cx="108.852" cy="55" r="40.8194" fill="#113CFC" fill-opacity="0.83"/>
<path d="M182.044 84.2832V24.9096H222.052V35.2594H194.597V49.407H219.993V59.7568H194.597V73.9334H222.168V84.2832H182.044ZM243.682 85.1239C240.841 85.1239 238.309 84.6311 236.086 83.6454C233.863 82.6404 232.105 81.1618 230.81 79.2098C229.534 77.2384 228.896 74.7838 228.896 71.8461C228.896 69.3722 229.35 67.2945 230.259 65.613C231.167 63.9315 232.404 62.5786 233.97 61.5542C235.535 60.5299 237.313 59.7568 239.304 59.235C241.314 58.7131 243.421 58.3459 245.624 58.1333C248.214 57.8627 250.301 57.6115 251.886 57.3795C253.471 57.1283 254.621 56.7611 255.336 56.2779C256.051 55.7947 256.409 55.0796 256.409 54.1325V53.9586C256.409 52.1225 255.829 50.7019 254.669 49.6969C253.529 48.6919 251.905 48.1894 249.799 48.1894C247.576 48.1894 245.808 48.6822 244.493 49.6679C243.179 50.6343 242.309 51.8519 241.884 53.3208L230.462 52.3931C231.042 49.6873 232.182 47.3486 233.883 45.3773C235.584 43.3865 237.777 41.8597 240.464 40.7967C243.17 39.7143 246.301 39.1732 249.857 39.1732C252.331 39.1732 254.698 39.4631 256.96 40.0429C259.24 40.6227 261.26 41.5214 263.019 42.7391C264.797 43.9567 266.198 45.5222 267.222 47.4356C268.247 49.3297 268.759 51.6007 268.759 54.2485V84.2832H257.047V78.1081H256.699C255.984 79.4997 255.027 80.727 253.829 81.79C252.63 82.8337 251.19 83.6551 249.509 84.2542C247.827 84.834 245.885 85.1239 243.682 85.1239ZM247.219 76.6006C249.035 76.6006 250.64 76.243 252.031 75.5279C253.423 74.7935 254.515 73.8078 255.307 72.5708C256.1 71.3339 256.496 69.9326 256.496 68.3671V63.6416C256.109 63.8929 255.578 64.1248 254.901 64.3374C254.244 64.5307 253.5 64.7143 252.669 64.8882C251.838 65.0428 251.007 65.1878 250.176 65.3231C249.345 65.439 248.591 65.5453 247.914 65.642C246.465 65.8546 245.199 66.1928 244.117 66.6567C243.034 67.1205 242.194 67.7487 241.594 68.5411C240.995 69.3142 240.696 70.2805 240.696 71.4402C240.696 73.1217 241.304 74.4069 242.522 75.296C243.759 76.1657 245.325 76.6006 247.219 76.6006ZM314.575 52.4511L303.268 53.1468C303.075 52.1805 302.659 51.3107 302.021 50.5377C301.384 49.7452 300.543 49.1171 299.499 48.6532C298.475 48.1701 297.248 47.9285 295.817 47.9285C293.904 47.9285 292.29 48.3343 290.976 49.1461C289.662 49.9385 289.005 51.0015 289.005 52.3351C289.005 53.3981 289.43 54.2968 290.28 55.0313C291.131 55.7657 292.59 56.3552 294.658 56.7997L302.717 58.4232C307.047 59.3123 310.274 60.7425 312.4 62.7139C314.526 64.6853 315.589 67.2751 315.589 70.4835C315.589 73.4019 314.729 75.9628 313.009 78.1661C311.308 80.3694 308.97 82.0895 305.993 83.3265C303.036 84.5441 299.625 85.1529 295.759 85.1529C289.865 85.1529 285.168 83.9256 281.67 81.4711C278.191 78.9972 276.152 75.6342 275.553 71.3822L287.7 70.7444C288.067 72.5418 288.956 73.9141 290.367 74.8611C291.778 75.7888 293.585 76.2527 295.788 76.2527C297.953 76.2527 299.693 75.8372 301.007 75.0061C302.34 74.1557 303.017 73.0637 303.036 71.7301C303.017 70.6091 302.543 69.6911 301.616 68.9759C300.688 68.2415 299.258 67.681 297.325 67.2945L289.613 65.7579C285.265 64.8882 282.027 63.3807 279.901 61.2353C277.795 59.09 276.741 56.3552 276.741 53.0309C276.741 50.1704 277.514 47.7062 279.061 45.6382C280.626 43.5701 282.82 41.9756 285.642 40.8547C288.483 39.7337 291.807 39.1732 295.614 39.1732C301.239 39.1732 305.665 40.3618 308.892 42.7391C312.139 45.1163 314.033 48.3537 314.575 52.4511ZM330.174 100.982C328.609 100.982 327.14 100.856 325.768 100.605C324.415 100.373 323.294 100.074 322.405 99.7064L325.188 90.4873C326.637 90.9318 327.942 91.1734 329.102 91.2121C330.281 91.2507 331.295 90.9801 332.146 90.4003C333.016 89.8205 333.721 88.8348 334.262 87.4432L334.987 85.5588L319.013 39.753H332.001L341.22 72.4549H341.684L350.99 39.753H364.065L346.757 89.0957C345.926 91.4923 344.796 93.5797 343.365 95.3578C341.954 97.1552 340.167 98.5371 338.002 99.5035C335.837 100.489 333.228 100.982 330.174 100.982ZM380.759 71.4692L380.788 56.6548H382.586L396.849 39.753H411.026L391.863 62.1341H388.935L380.759 71.4692ZM369.569 84.2832V24.9096H381.919V84.2832H369.569ZM397.4 84.2832L384.296 64.8882L392.529 56.1619L411.866 84.2832H397.4ZM434.555 85.1529C430.051 85.1529 426.157 84.1962 422.871 82.2828C419.605 80.3501 417.083 77.6636 415.304 74.2233C413.526 70.7637 412.637 66.7533 412.637 62.192C412.637 57.5921 413.526 53.572 415.304 50.1318C417.083 46.6722 419.605 43.9857 422.871 42.0723C426.157 40.1395 430.051 39.1732 434.555 39.1732C439.058 39.1732 442.943 40.1395 446.209 42.0723C449.495 43.9857 452.026 46.6722 453.805 50.1318C455.583 53.572 456.472 57.5921 456.472 62.192C456.472 66.7533 455.583 70.7637 453.805 74.2233C452.026 77.6636 449.495 80.3501 446.209 82.2828C442.943 84.1962 439.058 85.1529 434.555 85.1529ZM434.613 75.5859C436.661 75.5859 438.372 75.0061 439.744 73.8464C441.116 72.6675 442.15 71.0633 442.846 69.0339C443.561 67.0046 443.919 64.6949 443.919 62.1051C443.919 59.5152 443.561 57.2056 442.846 55.1762C442.15 53.1468 441.116 51.5427 439.744 50.3637C438.372 49.1847 436.661 48.5953 434.613 48.5953C432.544 48.5953 430.805 49.1847 429.394 50.3637C428.003 51.5427 426.949 53.1468 426.234 55.1762C425.538 57.2056 425.19 59.5152 425.19 62.1051C425.19 64.6949 425.538 67.0046 426.234 69.0339C426.949 71.0633 428.003 72.6675 429.394 73.8464C430.805 75.0061 432.544 75.5859 434.613 75.5859ZM500.736 52.4511L489.43 53.1468C489.237 52.1805 488.821 51.3107 488.183 50.5377C487.545 49.7452 486.705 49.1171 485.661 48.6532C484.637 48.1701 483.409 47.9285 481.979 47.9285C480.066 47.9285 478.452 48.3343 477.138 49.1461C475.823 49.9385 475.166 51.0015 475.166 52.3351C475.166 53.3981 475.592 54.2968 476.442 55.0313C477.292 55.7657 478.752 56.3552 480.82 56.7997L488.879 58.4232C493.208 59.3123 496.436 60.7425 498.562 62.7139C500.688 64.6853 501.751 67.2751 501.751 70.4835C501.751 73.4019 500.891 75.9628 499.171 78.1661C497.47 80.3694 495.131 82.0895 492.155 83.3265C489.198 84.5441 485.787 85.1529 481.921 85.1529C476.026 85.1529 471.33 83.9256 467.832 81.4711C464.353 78.9972 462.314 75.6342 461.714 71.3822L473.862 70.7444C474.229 72.5418 475.118 73.9141 476.529 74.8611C477.94 75.7888 479.747 76.2527 481.95 76.2527C484.115 76.2527 485.854 75.8372 487.169 75.0061C488.502 74.1557 489.179 73.0637 489.198 71.7301C489.179 70.6091 488.705 69.6911 487.777 68.9759C486.85 68.2415 485.419 67.681 483.487 67.2945L475.775 65.7579C471.426 64.8882 468.189 63.3807 466.063 61.2353C463.956 59.09 462.903 56.3552 462.903 53.0309C462.903 50.1704 463.676 47.7062 465.222 45.6382C466.788 43.5701 468.982 41.9756 471.803 40.8547C474.644 39.7337 477.969 39.1732 481.776 39.1732C487.401 39.1732 491.826 40.3618 495.054 42.7391C498.301 45.1163 500.195 48.3537 500.736 52.4511Z" fill="white"/>
</svg>
